<mxfile host="app.diagrams.net" modified="2023-04-25T11:06:30.097Z" agent="Mozilla/5.0 (Windows NT 10.0; Win64; x64) AppleWebKit/537.36 (KHTML, like Gecko) Chrome/112.0.0.0 Safari/537.36" etag="AAnkqKz77lSM9U6m6wYC" version="21.2.1" type="github">
  <diagram name="Страница 1" id="OEq_fK_gDckMK1iQfVcr">
    <mxGraphModel dx="925" dy="514" grid="0" gridSize="10" guides="1" tooltips="1" connect="1" arrows="1" fold="1" page="1" pageScale="1" pageWidth="1169" pageHeight="827" math="0" shadow="0">
      <root>
        <mxCell id="0" />
        <mxCell id="1" parent="0" />
        <mxCell id="K-uSzFAWOv2Kq7Vh8tpK-1" value="" style="endArrow=none;html=1;rounded=0;fontFamily=GOST type A Regular;fontSource=https%3A%2F%2Fwebfonts.pro%2Flight-fonts%2F123-gost_type_a.html;edgeStyle=orthogonalEdgeStyle;curved=1;exitX=0.5;exitY=1;exitDx=0;exitDy=0;entryX=0.5;entryY=1;entryDx=0;entryDy=0;startArrow=classic;startFill=1;fontStyle=2" edge="1" parent="1" source="K-uSzFAWOv2Kq7Vh8tpK-4" target="K-uSzFAWOv2Kq7Vh8tpK-5">
          <mxGeometry width="50" height="50" relative="1" as="geometry">
            <mxPoint x="294" y="585" as="sourcePoint" />
            <mxPoint x="344" y="535" as="targetPoint" />
            <Array as="points">
              <mxPoint x="272" y="631" />
              <mxPoint x="903" y="631" />
            </Array>
          </mxGeometry>
        </mxCell>
        <mxCell id="K-uSzFAWOv2Kq7Vh8tpK-2" value="" style="endArrow=none;html=1;rounded=0;fontFamily=GOST type A Regular;fontSource=https%3A%2F%2Fwebfonts.pro%2Flight-fonts%2F123-gost_type_a.html;edgeStyle=orthogonalEdgeStyle;curved=1;exitX=0.5;exitY=0;exitDx=0;exitDy=0;entryX=0.5;entryY=0;entryDx=0;entryDy=0;startArrow=classic;startFill=1;fontStyle=2" edge="1" parent="1" source="K-uSzFAWOv2Kq7Vh8tpK-5" target="K-uSzFAWOv2Kq7Vh8tpK-4">
          <mxGeometry width="50" height="50" relative="1" as="geometry">
            <mxPoint x="282" y="455" as="sourcePoint" />
            <mxPoint x="464" y="632" as="targetPoint" />
            <Array as="points">
              <mxPoint x="903" y="196" />
              <mxPoint x="272" y="196" />
            </Array>
          </mxGeometry>
        </mxCell>
        <mxCell id="K-uSzFAWOv2Kq7Vh8tpK-3" value="&lt;div&gt;&quot;service&quot;: {&lt;/div&gt;&lt;div&gt;&lt;span style=&quot;&quot;&gt;		&lt;/span&gt;&quot;_id&quot;: &quot;6389fabd6ab54b47891c88db&quot;,&lt;/div&gt;&lt;div&gt;&quot;title&quot;: &quot;Ремонт телефонов&quot;,&lt;br&gt;&lt;/div&gt;&lt;div&gt;&lt;span style=&quot;background-color: initial;&quot;&gt;&quot;userDescription&quot;: &quot;Я Роман, чиню телефоны уже 15 лет&quot;,&lt;/span&gt;&lt;/div&gt;&lt;div&gt;&lt;span style=&quot;&quot;&gt;		&lt;/span&gt;&quot;imgUrl&quot;: &quot;16699870053279P6q4pLvc5Y.jpg&quot;,&lt;/div&gt;&lt;div&gt;&lt;span style=&quot;&quot;&gt;		&lt;/span&gt;&quot;price&quot;: 2000,&lt;/div&gt;&lt;div&gt;&lt;span style=&quot;&quot;&gt;		&lt;/span&gt;&quot;views&quot;: 40,&lt;/div&gt;&lt;div&gt;&lt;span style=&quot;&quot;&gt;		&lt;/span&gt;&quot;author&quot;: &quot;6389fa956ab54b47891c88d3&quot;,&lt;/div&gt;&lt;div&gt;&lt;span style=&quot;&quot;&gt;		&lt;/span&gt;&quot;comments&quot;: [],&lt;/div&gt;&lt;div&gt;&lt;span style=&quot;&quot;&gt;		&lt;/span&gt;&quot;createdAt&quot;: &quot;2022-12-02T13:16:45.329Z&quot;,&lt;/div&gt;&lt;div&gt;&lt;span style=&quot;&quot;&gt;		&lt;/span&gt;&quot;updatedAt&quot;: &quot;2022-12-05T23:58:29.649Z&quot;,&lt;/div&gt;&lt;div&gt;&lt;span style=&quot;&quot;&gt;		&lt;/span&gt;&quot;__v&quot;: 0,&lt;/div&gt;&lt;div&gt;&lt;span style=&quot;&quot;&gt;		&lt;/span&gt;&quot;category&quot;: &quot;Цифровая техника&quot;&amp;nbsp;&lt;span style=&quot;background-color: initial;&quot;&gt;}&lt;/span&gt;&lt;/div&gt;" style="shape=note;whiteSpace=wrap;html=1;backgroundOutline=1;darkOpacity=0.05;fontFamily=GOST type A Regular;fontSource=https%3A%2F%2Fwebfonts.pro%2Flight-fonts%2F123-gost_type_a.html;fontStyle=2" vertex="1" parent="1">
          <mxGeometry x="454" y="504" width="270" height="236" as="geometry" />
        </mxCell>
        <mxCell id="K-uSzFAWOv2Kq7Vh8tpK-4" value="Клиент" style="rounded=0;whiteSpace=wrap;html=1;fontFamily=GOST type A Regular;fontSource=https%3A%2F%2Fwebfonts.pro%2Flight-fonts%2F123-gost_type_a.html;fontStyle=2" vertex="1" parent="1">
          <mxGeometry x="212" y="385" width="120" height="60" as="geometry" />
        </mxCell>
        <mxCell id="K-uSzFAWOv2Kq7Vh8tpK-5" value="API-сервер" style="rounded=0;whiteSpace=wrap;html=1;fontFamily=GOST type A Regular;fontSource=https%3A%2F%2Fwebfonts.pro%2Flight-fonts%2F123-gost_type_a.html;fontStyle=2" vertex="1" parent="1">
          <mxGeometry x="843" y="384" width="120" height="60" as="geometry" />
        </mxCell>
        <mxCell id="K-uSzFAWOv2Kq7Vh8tpK-6" value="Можно получить информацию об услуге&amp;nbsp;6389fabd6ab54b47891c88db?" style="shape=callout;whiteSpace=wrap;html=1;perimeter=calloutPerimeter;fontFamily=GOST type A Regular;fontSource=https%3A%2F%2Fwebfonts.pro%2Flight-fonts%2F123-gost_type_a.html;fontStyle=2" vertex="1" parent="1">
          <mxGeometry x="116" y="271" width="210" height="120" as="geometry" />
        </mxCell>
        <mxCell id="K-uSzFAWOv2Kq7Vh8tpK-7" value="Проблем не возникло.&lt;br&gt;Отправляю содержимое запрашиваемого ресурса..." style="shape=callout;whiteSpace=wrap;html=1;perimeter=calloutPerimeter;fontFamily=GOST type A Regular;fontSource=https%3A%2F%2Fwebfonts.pro%2Flight-fonts%2F123-gost_type_a.html;fontStyle=2" vertex="1" parent="1">
          <mxGeometry x="843" y="271" width="210" height="120" as="geometry" />
        </mxCell>
        <mxCell id="K-uSzFAWOv2Kq7Vh8tpK-8" value="200 OK" style="text;html=1;align=center;verticalAlign=middle;resizable=0;points=[];autosize=1;strokeColor=none;fillColor=none;fontFamily=GOST type A Regular;fontSource=https%3A%2F%2Fwebfonts.pro%2Flight-fonts%2F123-gost_type_a.html;fontStyle=2" vertex="1" parent="1">
          <mxGeometry x="450" y="512" width="56" height="26" as="geometry" />
        </mxCell>
        <mxCell id="K-uSzFAWOv2Kq7Vh8tpK-9" value="GET /services/6389fabd6ab54b47891c88db" style="shape=note;whiteSpace=wrap;html=1;backgroundOutline=1;darkOpacity=0.05;fontFamily=GOST type A Regular;fontSource=https%3A%2F%2Fwebfonts.pro%2Flight-fonts%2F123-gost_type_a.html;fontStyle=2" vertex="1" parent="1">
          <mxGeometry x="461" y="167" width="270" height="75" as="geometry" />
        </mxCell>
        <mxCell id="K-uSzFAWOv2Kq7Vh8tpK-10" value="" style="endArrow=classic;html=1;rounded=0;fontFamily=GOST type A Regular;fontSource=https%3A%2F%2Fwebfonts.pro%2Flight-fonts%2F123-gost_type_a.html;fontStyle=2" edge="1" parent="1">
          <mxGeometry width="50" height="50" relative="1" as="geometry">
            <mxPoint x="361" y="132" as="sourcePoint" />
            <mxPoint x="455" y="179" as="targetPoint" />
          </mxGeometry>
        </mxCell>
        <mxCell id="K-uSzFAWOv2Kq7Vh8tpK-11" value="HTTP-запрос" style="text;html=1;align=center;verticalAlign=middle;resizable=0;points=[];autosize=1;strokeColor=none;fillColor=none;fontFamily=GOST type A Regular;fontStyle=2;fontSource=https%3A%2F%2Fwebfonts.pro%2Flight-fonts%2F123-gost_type_a.html;" vertex="1" parent="1">
          <mxGeometry x="315" y="104" width="85" height="26" as="geometry" />
        </mxCell>
        <mxCell id="K-uSzFAWOv2Kq7Vh8tpK-12" value="HTTP-метод" style="text;html=1;align=center;verticalAlign=middle;resizable=0;points=[];autosize=1;strokeColor=none;fillColor=none;fontFamily=GOST type A Regular;fontStyle=2;fontSource=https%3A%2F%2Fwebfonts.pro%2Flight-fonts%2F123-gost_type_a.html;" vertex="1" parent="1">
          <mxGeometry x="455" y="88" width="85" height="26" as="geometry" />
        </mxCell>
        <mxCell id="K-uSzFAWOv2Kq7Vh8tpK-13" value="Path, представляющий услугу&amp;nbsp;&lt;br&gt;&lt;span style=&quot;&quot;&gt;6389fabd6ab54b47891c88db&lt;/span&gt;" style="text;html=1;align=center;verticalAlign=middle;resizable=0;points=[];autosize=1;strokeColor=none;fillColor=none;fontFamily=GOST type A Regular;fontStyle=2;fontSource=https%3A%2F%2Fwebfonts.pro%2Flight-fonts%2F123-gost_type_a.html;" vertex="1" parent="1">
          <mxGeometry x="544" y="89" width="173" height="41" as="geometry" />
        </mxCell>
        <mxCell id="K-uSzFAWOv2Kq7Vh8tpK-14" value="HTTP-ответ" style="text;html=1;align=center;verticalAlign=middle;resizable=0;points=[];autosize=1;strokeColor=none;fillColor=none;fontFamily=GOST type A Regular;fontStyle=2;fontSource=https%3A%2F%2Fwebfonts.pro%2Flight-fonts%2F123-gost_type_a.html;" vertex="1" parent="1">
          <mxGeometry x="345" y="714" width="85" height="26" as="geometry" />
        </mxCell>
        <mxCell id="K-uSzFAWOv2Kq7Vh8tpK-15" value="Тело ответа в формате JSON" style="text;html=1;align=center;verticalAlign=middle;resizable=0;points=[];autosize=1;strokeColor=none;fillColor=none;fontFamily=GOST type A Regular;fontStyle=2;fontSource=https%3A%2F%2Fwebfonts.pro%2Flight-fonts%2F123-gost_type_a.html;" vertex="1" parent="1">
          <mxGeometry x="761" y="606" width="173" height="26" as="geometry" />
        </mxCell>
        <mxCell id="K-uSzFAWOv2Kq7Vh8tpK-16" value="Код состояния HTTP и поясняющая фраза" style="text;html=1;align=center;verticalAlign=middle;resizable=0;points=[];autosize=1;strokeColor=none;fillColor=none;fontFamily=GOST type A Regular;fontStyle=2;fontSource=https%3A%2F%2Fwebfonts.pro%2Flight-fonts%2F123-gost_type_a.html;" vertex="1" parent="1">
          <mxGeometry x="471.5" y="438" width="236" height="26" as="geometry" />
        </mxCell>
        <mxCell id="K-uSzFAWOv2Kq7Vh8tpK-17" value="" style="endArrow=classic;html=1;rounded=0;fontFamily=GOST type A Regular;fontSource=https%3A%2F%2Fwebfonts.pro%2Flight-fonts%2F123-gost_type_a.html;exitX=0.514;exitY=1.005;exitDx=0;exitDy=0;exitPerimeter=0;fontStyle=2" edge="1" parent="1" source="K-uSzFAWOv2Kq7Vh8tpK-12">
          <mxGeometry width="50" height="50" relative="1" as="geometry">
            <mxPoint x="404" y="145" as="sourcePoint" />
            <mxPoint x="498" y="192" as="targetPoint" />
          </mxGeometry>
        </mxCell>
        <mxCell id="K-uSzFAWOv2Kq7Vh8tpK-18" value="" style="endArrow=classic;html=1;rounded=0;fontFamily=GOST type A Regular;fontSource=https%3A%2F%2Fwebfonts.pro%2Flight-fonts%2F123-gost_type_a.html;exitX=0.477;exitY=1.089;exitDx=0;exitDy=0;exitPerimeter=0;fontStyle=2" edge="1" parent="1" source="K-uSzFAWOv2Kq7Vh8tpK-13">
          <mxGeometry width="50" height="50" relative="1" as="geometry">
            <mxPoint x="629" y="122" as="sourcePoint" />
            <mxPoint x="626.0000000000002" y="191.87" as="targetPoint" />
          </mxGeometry>
        </mxCell>
        <mxCell id="K-uSzFAWOv2Kq7Vh8tpK-19" value="" style="endArrow=classic;html=1;rounded=0;fontFamily=GOST type A Regular;fontSource=https%3A%2F%2Fwebfonts.pro%2Flight-fonts%2F123-gost_type_a.html;exitX=0.36;exitY=1;exitDx=0;exitDy=0;exitPerimeter=0;fontStyle=2" edge="1" parent="1" source="K-uSzFAWOv2Kq7Vh8tpK-15">
          <mxGeometry width="50" height="50" relative="1" as="geometry">
            <mxPoint x="797" y="637" as="sourcePoint" />
            <mxPoint x="704" y="647" as="targetPoint" />
          </mxGeometry>
        </mxCell>
        <mxCell id="K-uSzFAWOv2Kq7Vh8tpK-20" value="" style="endArrow=classic;html=1;rounded=0;fontFamily=GOST type A Regular;fontSource=https%3A%2F%2Fwebfonts.pro%2Flight-fonts%2F123-gost_type_a.html;exitX=0.481;exitY=-0.154;exitDx=0;exitDy=0;exitPerimeter=0;entryX=0.007;entryY=0.787;entryDx=0;entryDy=0;entryPerimeter=0;fontStyle=2" edge="1" parent="1" source="K-uSzFAWOv2Kq7Vh8tpK-14" target="K-uSzFAWOv2Kq7Vh8tpK-3">
          <mxGeometry width="50" height="50" relative="1" as="geometry">
            <mxPoint x="432.5079999999998" y="703" as="sourcePoint" />
            <mxPoint x="442" y="688" as="targetPoint" />
          </mxGeometry>
        </mxCell>
        <mxCell id="K-uSzFAWOv2Kq7Vh8tpK-21" value="" style="endArrow=classic;html=1;rounded=0;fontFamily=GOST type A Regular;fontSource=https%3A%2F%2Fwebfonts.pro%2Flight-fonts%2F123-gost_type_a.html;exitX=0.484;exitY=1.077;exitDx=0;exitDy=0;exitPerimeter=0;fontStyle=2" edge="1" parent="1" source="K-uSzFAWOv2Kq7Vh8tpK-16">
          <mxGeometry width="50" height="50" relative="1" as="geometry">
            <mxPoint x="478.0210000000002" y="457.999" as="sourcePoint" />
            <mxPoint x="477.5" y="516.22" as="targetPoint" />
          </mxGeometry>
        </mxCell>
      </root>
    </mxGraphModel>
  </diagram>
</mxfile>
